<?xml version="1.0" standalone="no"?>
<!DOCTYPE svg PUBLIC "-//W3C//DTD SVG 1.1//EN" "http://www.w3.org/Graphics/SVG/1.1/DTD/svg11.dtd" >
<svg xmlns="http://www.w3.org/2000/svg">
<metadata>Generated by IcoMoon</metadata>
<defs>
<font id="icomoon" horiz-adv-x="1024">
<font-face units-per-em="1024" ascent="960" descent="-64" />
<missing-glyph horiz-adv-x="1024" />
<glyph unicode="&#x20;" horiz-adv-x="512" d="" />
<glyph unicode="&#xe900;" glyph-name="red_i" horiz-adv-x="175" d="M37.463 454.244v-480.78h99.902v961.561h-99.902v-480.78z" />
<glyph unicode="&#xe901;" glyph-name="red_z" horiz-adv-x="712" d="M49.951 822.634v-112.39h99.902v137.366h399.61l-46.205-71.18c-438.322-683.083-453.307-709.307-453.307-755.512v-47.454h611.902v212.293h-43.707c-43.707 0-43.707 0-43.707-56.195v-56.195h-201.054c-156.098 0-198.556 3.746-191.063 16.234 6.244 7.493 116.137 179.824 244.761 382.127 199.805 312.195 234.771 375.883 234.771 415.844v47.454h-611.902v-112.39z" />
<glyph unicode="&#xe902;" glyph-name="red_n" horiz-adv-x="649" d="M24.976 466.732v-468.293h99.902l2.498 355.902 3.746 355.902 207.298-352.156c197.307-337.171 208.546-353.405 246.010-357.151l39.961-3.746v937.834h-99.902l-2.498-343.415-3.746-344.663-399.61 686.829-46.205 1.249h-47.454v-468.293z" />
<glyph unicode="&#xe903;" glyph-name="red_x" horiz-adv-x="762" d="M87.415 863.844c0-37.463 24.976-87.415 119.883-243.512l118.634-197.307-119.883-192.312c-131.122-209.795-143.61-251.005-74.927-251.005 33.717 0 44.956 13.737 142.361 171.083 58.693 93.659 109.893 168.585 114.888 164.839 4.995-2.498 56.195-81.171 112.39-173.58 98.654-162.341 103.649-168.585 143.61-168.585 36.215 0 42.459 4.995 42.459 28.722 0 14.985-53.698 114.888-118.634 221.034s-118.634 196.059-118.634 202.302c0 4.995 53.698 93.659 118.634 197.307 97.405 156.098 118.634 197.307 118.634 238.517 0 42.459-3.746 48.702-29.971 48.702-23.727 0-48.702-31.22-144.859-187.317-63.688-103.649-118.634-189.815-123.629-192.312-3.746-2.498-59.941 81.171-124.878 187.317-97.405 161.093-121.132 192.312-146.107 192.312-26.224 0-29.971-6.244-29.971-46.205z" />
<glyph unicode="&#xe904;" glyph-name="red_a" horiz-adv-x="662" d="M24.976 454.244v-468.293h99.902v162.341h412.098v-162.341h87.415v936.585h-99.902v-162.341h-399.61v162.341h-99.902v-468.293zM524.488 591.61v-68.683h-399.61v137.366h399.61v-68.683zM536.976 341.854v-68.683h-412.098v137.366h412.098v-68.683z" />
<glyph unicode="&#xe905;" glyph-name="red_b" horiz-adv-x="699" d="M169.834 895.063c-144.859-84.917-177.327-254.751-71.18-373.385l47.454-53.698-33.717-33.717c-117.385-117.385-97.405-313.444 42.459-408.351 57.444-38.712 64.937-39.961 182.322-39.961s124.878 1.249 182.322 41.21c77.424 52.449 117.385 126.127 117.385 218.537 0 78.673-34.966 164.839-81.171 199.805l-27.473 21.229 47.454 54.946c99.902 112.39 79.922 263.493-47.454 360.898-42.459 31.22-54.946 33.717-177.327 37.463-118.634 2.498-137.366 0-181.073-24.976zM274.732 680.273c0-151.102-1.249-154.849-26.224-148.605-13.737 3.746-44.956 24.976-68.683 47.454-34.966 33.717-42.459 49.951-42.459 92.41 0 63.688 27.473 107.395 86.166 138.615 24.976 13.737 46.205 23.727 48.702 24.976 1.249 0 2.498-69.932 2.498-154.849zM444.566 815.141c126.127-59.941 124.878-222.283-2.498-274.732-23.727-9.99-47.454-17.483-54.946-17.483s-12.488 57.444-12.488 156.098c0 104.898 4.995 156.098 13.737 156.098 7.493 0 32.468-8.741 56.195-19.98zM274.732 248.195v-176.078l-36.215 18.732c-19.98 11.239-49.951 36.215-68.683 57.444-42.459 51.2-44.956 142.361-4.995 193.561 21.229 27.473 92.41 81.171 107.395 81.171 1.249 0 2.498-78.673 2.498-174.829zM435.824 404.293c102.4-52.449 134.868-176.078 68.683-256-32.468-37.463-89.912-74.927-117.385-74.927-7.493 0-12.488 61.19-12.488 174.829s4.995 174.829 12.488 174.829c7.493 0 29.971-8.741 48.702-18.732z" />
<glyph unicode="&#xe906;" glyph-name="red_c" horiz-adv-x="699" d="M49.951 887.571c0-31.22 7.493-37.463 48.702-51.2 61.19-17.483 129.873-87.415 172.332-174.829 26.224-53.698 34.966-91.161 38.712-176.078 6.244-128.624-14.985-214.79-73.678-303.454-38.712-58.693-124.878-121.132-164.839-121.132-14.985 0-21.229-11.239-21.229-37.463 0-36.215 1.249-37.463 61.19-37.463 49.951 0 71.18 7.493 116.137 41.21 29.971 22.478 71.18 67.434 91.161 98.654 21.229 32.468 41.21 58.693 44.956 58.693 3.746 1.249 13.737-12.488 21.229-28.722 19.98-44.956 101.151-131.122 141.112-152.351 19.98-9.99 54.946-17.483 79.922-17.483 39.961 0 43.707 2.498 43.707 36.215 0 27.473-7.493 38.712-27.473 46.205-58.693 17.483-122.38 82.42-162.341 163.59-34.966 71.18-41.21 98.654-44.956 197.307-8.741 193.561 52.449 337.171 172.332 402.107 46.205 26.224 62.439 42.459 62.439 63.688 0 24.976-6.244 27.473-59.941 27.473-51.2 0-68.683-6.244-112.39-44.956-28.722-24.976-67.434-69.932-86.166-101.151l-32.468-56.195-34.966 56.195c-18.732 31.22-61.19 76.176-93.659 101.151-48.702 37.463-68.683 44.956-118.634 44.956-58.693 0-61.19-1.249-61.19-34.966z" />
<glyph unicode="&#xe907;" glyph-name="red_d" horiz-adv-x="691" d="M49.349 435.663v-462.651h60.453c49.349 0 70.323 7.402 114.737 40.713 29.61 22.207 70.323 66.622 90.063 97.465 20.973 32.077 40.713 57.986 44.414 57.986 3.701 1.234 13.571-12.337 20.973-28.376 19.74-44.414 99.933-129.542 139.412-150.516 19.74-9.87 54.284-17.272 78.959-17.272h43.181v925.301h-59.219c-50.583 0-67.855-6.169-111.036-44.414-28.376-24.675-66.622-69.089-85.128-99.933l-32.077-55.518-34.545 55.518c-18.506 30.843-60.453 75.258-92.53 99.933-48.116 37.012-67.855 44.414-117.205 44.414h-60.453v-462.651zM220.839 718.188c23.441-30.843 53.051-85.128 65.388-119.672 27.142-78.959 28.376-228.241 3.701-312.135-20.973-70.323-83.894-172.723-118.439-191.229-22.207-11.104-23.441-1.234-23.441 339.277 0 276.357 3.701 350.381 16.039 345.446 7.402-3.701 33.311-30.843 56.752-61.687zM542.843 439.364v-346.68l-24.675 22.207c-13.571 12.337-43.181 59.219-65.388 103.634-37.012 76.492-39.48 87.595-39.48 223.306 0 122.14 3.701 150.516 28.376 202.333 25.908 57.986 83.894 143.113 96.231 143.113 2.467 0 4.935-156.684 4.935-347.913z" />
<glyph unicode="&#xe908;" glyph-name="red_e" horiz-adv-x="662" d="M24.976 897.561v-49.951h237.268v-287.22h-43.707c-42.459 0-43.707-1.249-43.707-49.951s1.249-49.951 43.707-49.951h43.707v-362.146h-237.268v-99.902h599.415v99.902h-262.244v362.146h43.707c42.459 0 43.707 1.249 43.707 49.951s-1.249 49.951-43.707 49.951h-43.707v287.22h262.244v99.902h-599.415v-49.951z" />
<glyph unicode="&#xe909;" glyph-name="red_f" horiz-adv-x="662" d="M274.732 641.561v-256h-249.756v-99.902h249.756v-224.78h-249.756v-99.902h349.659v474.537h249.756v99.902h-249.756v262.244h249.756v99.902h-349.659v-256z" />
<glyph unicode="&#xe90a;" glyph-name="red_g" horiz-adv-x="699" d="M118.634 882.576c-49.951-71.18-72.429-184.82-77.424-397.112-6.244-227.278 9.99-344.663 61.19-448.312l28.722-57.444 78.673-3.746c74.927-3.746 78.673-2.498 99.902 33.717 11.239 21.229 23.727 38.712 27.473 38.712s16.234-17.483 27.473-38.712c21.229-36.215 24.976-37.463 99.902-33.717l78.673 3.746 28.722 57.444c44.956 91.161 64.937 212.293 64.937 404.605s-19.98 313.444-64.937 404.605l-28.722 57.444-78.673 3.746c-74.927 3.746-78.673 2.498-99.902-33.717-11.239-21.229-23.727-38.712-27.473-38.712s-16.234 17.483-27.473 37.463c-19.98 34.966-26.224 37.463-96.156 37.463-63.688 0-77.424-3.746-94.907-27.473zM241.015 787.668c23.727-58.693 46.205-178.576 46.205-242.263 0-46.205-1.249-47.454-43.707-47.454s-43.707-1.249-43.707-49.951c0-48.702 1.249-49.951 44.956-49.951h46.205l-7.493-96.156c-6.244-94.907-33.717-203.551-58.693-241.015-11.239-16.234-13.737-16.234-24.976 0-51.2 77.424-81.171 419.59-51.2 593.171 16.234 89.912 47.454 181.073 63.688 181.073 4.995 0 18.732-21.229 28.722-47.454zM490.771 786.42c68.683-169.834 57.444-614.4-16.234-725.541-11.239-16.234-13.737-16.234-24.976 0-24.976 36.215-51.2 144.859-58.693 241.015l-7.493 96.156h46.205c43.707 0 44.956 1.249 44.956 49.951s-1.249 49.951-43.707 49.951c-42.459 0-43.707 1.249-43.707 47.454 0 98.654 48.702 289.717 74.927 289.717 4.995 0 18.732-22.478 28.722-48.702z" />
<glyph unicode="&#xe90b;" glyph-name="red_h" horiz-adv-x="687" d="M37.463 466.732v-468.293h99.902v437.073h399.61v-437.073h99.902v936.585h-99.902v-399.61h-399.61v399.61h-99.902v-468.293z" />
<glyph unicode="&#xe90c;" glyph-name="red_j" horiz-adv-x="649" d="M308.449 860.098l-33.717-36.215-2.498-378.38-3.746-378.38-47.454-3.746c-61.19-4.995-96.156 23.727-96.156 78.673 0 43.707-16.234 56.195-69.932 56.195-27.473 0-29.971-4.995-29.971-58.693 0-67.434 32.468-124.878 89.912-157.346 47.454-27.473 158.595-27.473 216.039 0l43.707 21.229 2.498 393.366 3.746 394.615 47.454 3.746c64.937 4.995 96.156-23.727 96.156-87.415 0-47.454 0-47.454 49.951-47.454h49.951v56.195c0 118.634-71.18 181.073-204.8 181.073-71.18 0-81.171-3.746-111.141-37.463z" />
<glyph unicode="&#xe90d;" glyph-name="red_k" horiz-adv-x="699" d="M37.463 907.551c0-16.234 54.946-121.132 122.38-234.771l122.38-206.049-123.629-202.302c-132.371-218.537-144.859-259.746-78.673-259.746 32.468 0 44.956 13.737 118.634 133.62l82.42 134.868 7.493-274.732h98.654v293.463l84.917-143.61c77.424-132.371 87.415-143.61 121.132-143.61 67.434 0 56.195 41.21-69.932 251.005-63.688 107.395-114.888 201.054-114.888 211.044 0 8.741 51.2 99.902 113.639 203.551 128.624 208.546 144.859 264.741 78.673 264.741-32.468 0-43.707-13.737-121.132-143.61l-86.166-144.859-3.746 144.859-3.746 143.61h-98.654v-280.976l-82.42 141.112c-79.922 134.868-83.668 139.863-124.878 139.863-36.215 0-42.459-4.995-42.459-27.473z" />
<glyph unicode="&#xe90e;" glyph-name="red_l" horiz-adv-x="695" d="M37.926 871.506v-50.568h240.198v-847.012h366.617v101.136h-265.481v847.012h-341.333v-50.568z" />
<glyph unicode="&#xe90f;" glyph-name="red_m" horiz-adv-x="662" d="M24.976 466.732v-468.293h71.18c71.18 0 72.429 1.249 147.356 74.927l76.176 74.927 147.356-149.854h157.346v936.585h-72.429c-71.18 0-72.429 0-146.107-74.927l-73.678-74.927-152.351 149.854h-154.849v-468.293zM330.927 660.293c4.995 0 53.698 43.707 107.395 96.156l98.654 94.907v-382.127c0-211.044-4.995-383.376-9.99-383.376s-46.205 37.463-89.912 82.42c-121.132 121.132-111.141 121.132-218.537 16.234l-93.659-89.912v756.761l98.654-94.907c53.698-52.449 102.4-96.156 107.395-96.156z" />
<glyph unicode="&#xe910;" glyph-name="red_o" horiz-adv-x="645" d="M221.235 901.847c-238.933-123.891-284.444-629.57-77.116-849.541 54.36-59.417 97.343-78.38 171.931-78.38 78.38 0 120.099 20.227 180.78 87.23 94.815 104.928 127.684 222.499 120.099 424.77-5.057 125.156-10.114 149.175-46.775 227.556-45.511 99.872-102.4 165.61-161.817 190.894-54.36 22.756-140.326 22.756-187.101-2.528zM418.449 770.37c116.306-121.363 137.798-427.299 41.719-590.38-42.983-73.323-87.23-104.928-147.911-104.928-73.323 0-137.798 70.795-174.459 190.894-39.19 128.948-30.341 302.143 20.227 413.393 45.511 101.136 92.286 141.59 160.553 141.59 44.247 0 59.417-7.585 99.872-50.568z" />
<glyph unicode="&#xe911;" glyph-name="red_p" horiz-adv-x="687" d="M274.732 680.273v-207.298h-56.195c-31.22 0-56.195-4.995-56.195-11.239s-14.985-17.483-34.966-24.976c-56.195-23.727-89.912-113.639-89.912-244.761 0-122.38 16.234-158.595 92.41-204.8 33.717-21.229 62.439-26.224 143.61-26.224h101.151v412.098h47.454c57.444 0 164.839 51.2 188.566 89.912 9.99 16.234 19.98 76.176 23.727 142.361 4.995 102.4 2.498 119.883-21.229 158.595-13.737 23.727-49.951 58.693-78.673 78.673-46.205 29.971-68.683 36.215-156.098 39.961l-103.649 4.995v-207.298zM440.82 780.176c104.898-42.459 139.863-154.849 74.927-233.522-31.22-36.215-96.156-73.678-128.624-73.678-7.493 0-12.488 58.693-12.488 162.341s4.995 162.341 12.488 162.341c7.493 0 31.22-7.493 53.698-17.483zM274.732 198.244c0-89.912-2.498-162.341-6.244-162.341-27.473 0-94.907 41.21-122.38 73.678-46.205 54.946-46.205 122.38 0 177.327 28.722 33.717 89.912 71.18 119.883 73.678 4.995 0 8.741-72.429 8.741-162.341z" />
<glyph unicode="&#xe912;" glyph-name="red_q" horiz-adv-x="707" d="M57.295 878.324c-15.848-15.848-8.533-57.295 21.943-107.276l29.257-51.2-25.6-65.829c-30.476-81.676-42.667-268.19-23.162-364.495 28.038-134.095 103.619-256 186.514-299.886 39.010-20.724 147.505-21.943 184.076-3.657 14.629 7.314 39.010 25.6 53.638 39.010 15.848 13.41 29.257 23.162 31.695 19.505 2.438-2.438 13.41-20.724 25.6-39.010 15.848-26.819 29.257-32.914 53.638-30.476 43.886 4.876 48.762 49.981 10.971 110.933l-28.038 46.324 24.381 69.486c20.724 57.295 25.6 97.524 25.6 234.057 0 162.133-1.219 165.79-41.448 253.562-48.762 103.619-123.124 179.2-190.171 192.61-68.267 12.19-136.533-1.219-184.076-37.79-23.162-18.286-43.886-30.476-46.324-29.257-1.219 2.438-12.19 19.505-23.162 39.010-20.724 31.695-65.829 45.105-85.333 24.381zM440.076 740.571c79.238-82.895 115.81-251.124 91.429-423.010-6.095-35.352-13.41-64.61-18.286-64.61-3.657 0-71.924 106.057-151.162 235.276l-142.629 234.057 36.571 34.133c28.038 24.381 48.762 32.914 87.771 32.914 42.667 0 57.295-7.314 96.305-48.762zM324.267 366.324l137.752-229.181-36.571-34.133c-90.21-82.895-204.8-15.848-256 151.162-20.724 69.486-25.6 108.495-20.724 203.581 3.657 109.714 14.629 159.695 30.476 143.848 3.657-3.657 69.486-109.714 145.067-235.276z" />
<glyph unicode="&#xe913;" glyph-name="red_r" horiz-adv-x="699" d="M49.951 846.361c0-46.205 13.737-71.18 106.146-199.805l106.146-148.605h-43.707c-23.727 0-43.707-4.995-43.707-11.239s-14.985-17.483-34.966-24.976c-56.195-23.727-89.912-113.639-89.912-244.761 0-122.38 16.234-158.595 92.41-204.8 33.717-21.229 62.439-26.224 142.361-26.224h101.151l3.746 163.59 3.746 162.341 112.39-158.595c62.439-87.415 119.883-161.093 128.624-164.839 9.99-3.746 14.985 14.985 14.985 64.937 0 67.434-3.746 74.927-94.907 202.302-51.2 72.429-92.41 133.62-89.912 134.868s34.966 17.483 72.429 36.215c37.463 17.483 76.176 44.956 86.166 61.19s19.98 76.176 23.727 142.361c4.995 102.4 2.498 119.883-21.229 158.595-13.737 23.727-48.702 57.444-76.176 76.176-43.707 28.722-62.439 32.468-154.849 32.468h-106.146l-3.746-127.376-3.746-128.624-87.415 124.878c-59.941 84.917-97.405 126.127-116.137 128.624-24.976 3.746-27.473-1.249-27.473-48.702zM453.307 805.151c104.898-42.459 139.863-154.849 74.927-233.522-31.22-36.215-96.156-73.678-128.624-73.678-7.493 0-12.488 58.693-12.488 162.341s4.995 162.341 12.488 162.341c7.493 0 31.22-7.493 53.698-17.483zM287.22 223.22c0-89.912-2.498-162.341-6.244-162.341-27.473 0-94.907 41.21-122.38 73.678-46.205 54.946-46.205 122.38 0 177.327 28.722 33.717 89.912 71.18 119.883 73.678 4.995 0 8.741-72.429 8.741-162.341z" />
<glyph unicode="&#xe914;" glyph-name="red_s" horiz-adv-x="662" d="M152.351 887.571c-106.146-56.195-151.102-134.868-136.117-239.766 12.488-94.907 116.137-183.571 260.995-219.785 41.21-11.239 98.654-29.971 127.376-42.459 204.8-88.663 138.615-324.683-92.41-324.683-126.127 0-212.293 68.683-212.293 169.834 0 54.946 0 54.946-43.707 54.946h-43.707v-76.176c0-94.907 29.971-148.605 111.141-199.805 52.449-33.717 63.688-36.215 188.566-36.215s136.117 2.498 188.566 36.215c86.166 53.698 111.141 103.649 111.141 219.785 0 73.678-6.244 106.146-23.727 136.117-27.473 42.459-91.161 94.907-117.385 94.907-8.741 0-21.229 4.995-28.722 9.99-6.244 6.244-36.215 18.732-67.434 27.473-88.663 26.224-191.063 76.176-228.527 109.893-47.454 43.707-47.454 109.893 1.249 154.849 44.956 43.707 89.912 59.941 171.083 59.941 37.463 0 82.42-6.244 102.4-13.737 54.946-19.98 103.649-73.678 103.649-113.639 0-31.22 3.746-34.966 43.707-34.966h43.707v62.439c0 53.698-4.995 67.434-41.21 103.649-68.683 68.683-114.888 83.668-254.751 83.668-93.659 0-132.371-4.995-163.59-22.478z" />
<glyph unicode="&#xe915;" glyph-name="red_t" horiz-adv-x="649" d="M24.976 828.878v-93.659h49.951c48.702 0 49.951 1.249 49.951 43.707v43.707h137.366v-749.268h-137.366v43.707c0 42.459-1.249 43.707-49.951 43.707h-49.951v-187.317h599.415v187.317h-49.951c-48.702 0-49.951-1.249-49.951-43.707v-43.707h-162.341v749.268h162.341v-43.707c0-42.459 1.249-43.707 49.951-43.707h49.951v187.317h-599.415v-93.659z" />
<glyph unicode="&#xe916;" glyph-name="red_u" horiz-adv-x="699" d="M37.463 519.18c0-463.298-2.498-449.561 87.415-495.766 66.185-33.717 194.81-33.717 260.995-1.249 88.663 44.956 87.415 44.956 91.161 450.81l3.746 362.146 28.722-18.732 27.473-19.98v-797.971h99.902v845.424l-28.722 26.224c-71.18 67.434-219.785 86.166-315.941 39.961-92.41-44.956-91.161-41.21-94.907-449.561l-3.746-362.146-28.722 18.732-27.473 19.98v797.971h-99.902v-415.844zM374.634 486.712c0-347.161 0-349.659-27.473-368.39-14.985-11.239-32.468-19.98-37.463-19.98-6.244 0-9.99 157.346-9.99 348.41 0 347.161 0 349.659 27.473 368.39 14.985 11.239 32.468 19.98 37.463 19.98 6.244 0 9.99-157.346 9.99-348.41z" />
<glyph unicode="&#xe917;" glyph-name="red_v" horiz-adv-x="646" d="M158.476 685.714c-48.762-110.933-96.305-207.238-106.057-214.552-18.286-15.848-21.943-67.048-4.876-76.8 6.095-3.657 52.419-102.4 104.838-220.648l95.086-213.333h114.59l95.086 213.333c52.419 118.248 98.743 216.99 104.838 220.648 17.067 9.752 13.41 60.952-4.876 76.8-9.752 7.314-57.295 103.619-106.057 214.552l-88.99 201.143h-114.59l-88.99-201.143zM369.371 632.076c31.695-73.143 57.295-138.971 57.295-146.286 0-8.533-42.667-13.41-121.905-13.41s-121.905 4.876-121.905 13.41c0 17.067 114.59 279.162 121.905 279.162 3.657 0 31.695-59.733 64.61-132.876zM426.667 361.448c0-17.067-114.59-279.162-121.905-279.162s-121.905 262.095-121.905 279.162c0 8.533 42.667 13.41 121.905 13.41s121.905-4.876 121.905-13.41z" />
<glyph unicode="&#xe918;" glyph-name="red_w" horiz-adv-x="662" d="M12.488 466.732v-468.293h98.654l7.493 327.18 67.434-163.59 66.185-164.839 138.615 7.493 119.883 287.22 1.249-146.107v-147.356h99.902v936.585h-98.654l-7.493-302.205-62.439 148.605-63.688 147.356-113.639 7.493-152.351-344.663-1.249 172.332v171.083h-99.902v-468.293zM385.873 660.293c34.966-81.171 67.434-164.839 71.18-184.82 4.995-26.224-12.488-81.171-64.937-207.298l-71.18-171.083-73.678 178.576c-63.688 151.102-72.429 184.82-62.439 216.039 9.99 32.468 131.122 317.19 134.868 318.439 1.249 0 31.22-67.434 66.185-149.854z" />
<glyph unicode="&#xe919;" glyph-name="red_y" horiz-adv-x="699" d="M24.976 877.58c0-52.449 6.244-63.688 64.937-123.629 42.459-44.956 78.673-69.932 106.146-74.927 22.478-3.746 41.21-12.488 41.21-18.732 0-7.493 8.741-12.488 18.732-12.488 16.234 0 18.732-28.722 18.732-187.317s-2.498-187.317-18.732-187.317c-9.99 0-18.732-4.995-18.732-12.488 0-6.244-18.732-14.985-39.961-18.732-48.702-9.99-63.688-19.98-124.878-91.161-39.961-43.707-47.454-61.19-47.454-108.644 0-54.946 0-56.195 42.459-56.195 37.463 0 42.459 3.746 49.951 42.459 13.737 69.932 102.4 121.132 212.293 121.132 111.141 0 219.785-64.937 219.785-132.371 0-28.722 4.995-31.22 49.951-31.22 47.454 0 49.951 1.249 49.951 41.21 0 76.176-91.161 184.82-177.327 211.044-26.224 7.493-47.454 18.732-47.454 24.976 0 4.995-11.239 9.99-24.976 9.99-23.727 0-24.976 8.741-24.976 187.317s1.249 187.317 24.976 187.317c13.737 0 24.976 4.995 24.976 11.239s16.234 14.985 36.215 19.98c21.229 3.746 56.195 23.727 78.673 44.956 22.478 19.98 44.956 36.215 48.702 36.215 16.234 0 61.19 99.902 61.19 136.117 0 37.463-2.498 38.712-49.951 38.712-44.956 0-49.951-2.498-49.951-31.22 0-67.434-108.644-132.371-219.785-132.371-109.893 0-198.556 51.2-212.293 121.132-7.493 38.712-12.488 42.459-49.951 42.459-42.459 0-42.459 0-42.459-57.444z" />
</font>
</defs>
</svg>
